<?xml version="1.0" standalone="no"?><!-- Generator: Gravit.io --><svg xmlns="http://www.w3.org/2000/svg" xmlns:xlink="http://www.w3.org/1999/xlink" style="isolation:isolate" viewBox="0 0 61 61" width="61" height="61"><path d=" M 0 30.5 C 0 13.667 13.667 0 30.5 0 C 47.333 0 61 13.667 61 30.5 C 61 47.333 47.333 61 30.5 61 C 13.667 61 0 47.333 0 30.5 Z " fill="rgb(104,104,97)"/><path d=" M 22.48 19.91 L 19.42 19.91 L 19.42 11.99 L 19.42 11.99 Q 21.16 9.47 24.49 8.12 L 24.49 8.12 L 24.49 8.12 Q 27.82 6.77 31.72 6.77 L 31.72 6.77 L 31.72 6.77 Q 37.36 6.77 41.47 9.44 L 41.47 9.44 L 41.47 9.44 Q 45.58 12.11 45.58 16.97 L 45.58 16.97 L 45.58 16.97 Q 45.58 19.85 43.9 22.61 L 43.9 22.61 L 43.9 22.61 Q 42.22 25.37 38.92 27.47 L 38.92 27.47 L 37.06 28.67 L 37.06 28.67 Q 33.52 30.95 32.35 33.5 L 32.35 33.5 L 32.35 33.5 Q 31.18 36.05 31.18 40.37 L 31.18 40.37 L 31.18 41.57 L 28.48 41.57 L 28.48 39.23 L 28.48 39.23 Q 28.48 35.33 29.56 32.96 L 29.56 32.96 L 29.56 32.96 Q 30.64 30.59 33.94 27.05 L 33.94 27.05 L 35.98 24.89 L 35.98 24.89 Q 39.1 21.47 39.1 16.73 L 39.1 16.73 L 39.1 16.73 Q 39.1 13.13 36.79 11.03 L 36.79 11.03 L 36.79 11.03 Q 34.48 8.93 31 8.93 L 31 8.93 L 31 8.93 Q 27.52 8.93 25.42 11.87 L 25.42 11.87 L 22.48 19.91 Z  M 26.02 49.22 L 26.02 49.22 L 26.02 49.22 Q 26.02 47.57 27.1 46.46 L 27.1 46.46 L 27.1 46.46 Q 28.18 45.35 29.92 45.35 L 29.92 45.35 L 29.92 45.35 Q 31.66 45.35 32.77 46.4 L 32.77 46.4 L 32.77 46.4 Q 33.88 47.45 33.88 49.19 L 33.88 49.19 L 33.88 49.19 Q 33.88 50.93 32.8 52.04 L 32.8 52.04 L 32.8 52.04 Q 31.72 53.15 29.98 53.15 L 29.98 53.15 L 29.98 53.15 Q 28.24 53.15 27.13 52.01 L 27.13 52.01 L 27.13 52.01 Q 26.02 50.87 26.02 49.22 Z " fill-rule="evenodd" fill="rgb(232,232,232)"/></svg>