<?xml version="1.0" standalone="no"?><!-- Generator: Gravit.io --><svg xmlns="http://www.w3.org/2000/svg" xmlns:xlink="http://www.w3.org/1999/xlink" style="isolation:isolate" viewBox="0 0 61 61" width="61" height="61"><path d=" M 7 30.5 C 23.431 15.3 39.108 15.31 54 30.5" fill="none" vector-effect="non-scaling-stroke" stroke-width="1" stroke="rgb(0,0,0)" stroke-linejoin="miter" stroke-linecap="square" stroke-miterlimit="3"/><path d=" M 7 30.5 C 22.764 43.434 38.44 43.444 54 30.5" fill="none" vector-effect="non-scaling-stroke" stroke-width="1" stroke="rgb(0,0,0)" stroke-linejoin="miter" stroke-linecap="square" stroke-miterlimit="3"/><path d=" M 23 30.5 C 23 26.637 26.361 23.5 30.5 23.5 C 34.639 23.5 38 26.637 38 30.5 C 38 34.363 34.639 37.5 30.5 37.5 C 26.361 37.5 23 34.363 23 30.5 Z " fill="none" vector-effect="non-scaling-stroke" stroke-width="1" stroke="rgb(0,0,0)" stroke-linejoin="miter" stroke-linecap="square" stroke-miterlimit="3"/><path d=" M 29.161 30.5 C 29.161 29.81 29.761 29.25 30.5 29.25 C 31.239 29.25 31.839 29.81 31.839 30.5 C 31.839 31.19 31.239 31.75 30.5 31.75 C 29.761 31.75 29.161 31.19 29.161 30.5 Z " fill="none" vector-effect="non-scaling-stroke" stroke-width="1" stroke="rgb(0,0,0)" stroke-linejoin="miter" stroke-linecap="square" stroke-miterlimit="3"/></svg>