<?xml version="1.0" standalone="no"?><!-- Generator: Gravit.io --><svg xmlns="http://www.w3.org/2000/svg" xmlns:xlink="http://www.w3.org/1999/xlink" style="isolation:isolate" viewBox="0 0 332.64 128.94" width="332.64" height="128.94"><path d=" M 50.22 128.94 L 31.98 128.94 L 31.98 126.72 L 37.86 125.4 L 37.86 107.34 L 15.9 107.34 L 15.9 125.4 L 21.9 126.72 L 21.9 128.94 L 3.6 128.94 L 3.6 126.72 L 9.6 125.4 L 9.6 87.6 L 3.6 86.16 L 3.6 83.94 L 21.9 83.94 L 21.9 86.16 L 15.9 87.6 L 15.9 104.64 L 37.86 104.64 L 37.86 87.6 L 31.98 86.16 L 31.98 83.94 L 50.22 83.94 L 50.22 86.16 L 44.16 87.54 L 44.16 125.34 L 50.22 126.72 L 50.22 128.94 Z  M 73.74 128.94 L 58.62 128.94 L 58.62 126.72 L 63.96 125.4 L 82.14 83.46 L 85.2 83.46 L 102.48 125.4 L 107.52 126.72 L 107.52 128.94 L 90.48 128.94 L 90.48 126.72 L 95.7 125.46 L 90.96 113.82 L 72.84 113.82 L 68.34 125.46 L 73.74 126.72 L 73.74 128.94 Z  M 81.72 90.48 L 73.68 111.54 L 90.12 111.54 L 81.72 90.48 Z  M 147.9 86.16 L 147.9 83.94 L 162.66 83.94 L 162.66 86.16 L 156.78 87.66 L 156.78 128.94 L 152.58 128.94 L 124.5 87.78 L 124.5 125.4 L 130.38 126.72 L 130.38 128.94 L 115.92 128.94 L 115.92 126.72 L 121.5 125.4 L 121.5 87.72 L 115.92 86.16 L 115.92 83.94 L 129.3 83.94 L 153.78 119.46 L 153.78 87.72 L 147.9 86.16 Z  M 205.44 86.16 L 205.44 83.94 L 220.2 83.94 L 220.2 86.16 L 214.32 87.66 L 214.32 128.94 L 210.12 128.94 L 182.04 87.78 L 182.04 125.4 L 187.92 126.72 L 187.92 128.94 L 173.46 128.94 L 173.46 126.72 L 179.04 125.4 L 179.04 87.72 L 173.46 86.16 L 173.46 83.94 L 186.84 83.94 L 211.32 119.46 L 211.32 87.72 L 205.44 86.16 Z  M 243.72 128.94 L 228.6 128.94 L 228.6 126.72 L 233.94 125.4 L 252.12 83.46 L 255.18 83.46 L 272.46 125.4 L 277.5 126.72 L 277.5 128.94 L 260.46 128.94 L 260.46 126.72 L 265.68 125.46 L 260.94 113.82 L 242.82 113.82 L 238.32 125.46 L 243.72 126.72 L 243.72 128.94 Z  M 251.7 90.48 L 243.66 111.54 L 260.1 111.54 L 251.7 90.48 Z  M 317.88 86.16 L 317.88 83.94 L 332.64 83.94 L 332.64 86.16 L 326.76 87.66 L 326.76 128.94 L 322.56 128.94 L 294.48 87.78 L 294.48 125.4 L 300.36 126.72 L 300.36 128.94 L 285.9 128.94 L 285.9 126.72 L 291.48 125.4 L 291.48 87.72 L 285.9 86.16 L 285.9 83.94 L 299.28 83.94 L 323.76 119.46 L 323.76 87.72 L 317.88 86.16 Z  M 28.86 45.48 L 10.62 45.48 L 10.62 43.26 L 16.44 41.88 L 16.44 3.06 L 5.46 3.06 L 3.12 11.82 L 0 11.82 L 0 0.48 L 39.36 0.48 L 39.36 11.82 L 36.24 11.82 L 33.9 3.06 L 22.74 3.06 L 22.74 41.94 L 28.86 43.26 L 28.86 45.48 Z  M 59.28 45.48 L 44.16 45.48 L 44.16 43.26 L 49.5 41.94 L 67.68 0 L 70.74 0 L 88.02 41.94 L 93.06 43.26 L 93.06 45.48 L 76.02 45.48 L 76.02 43.26 L 81.24 42 L 76.5 30.36 L 58.38 30.36 L 53.88 42 L 59.28 43.26 L 59.28 45.48 Z  M 67.26 7.02 L 59.22 28.08 L 75.66 28.08 L 67.26 7.02 Z  M 156.18 2.64 L 156.18 0.48 L 170.88 0.48 L 170.88 2.64 L 165.66 4.2 L 151.2 45.48 L 147.6 45.48 L 134.52 8.34 L 121.68 45.48 L 118.08 45.48 L 103.98 4.08 L 98.46 2.7 L 98.46 0.48 L 116.7 0.48 L 116.7 2.7 L 110.64 4.02 L 121.68 37.02 L 134.22 0.48 L 137.94 0.48 L 151.14 37.56 L 161.46 4.08 L 156.18 2.64 Z  M 225.3 45.48 L 207.06 45.48 L 207.06 43.26 L 212.94 41.94 L 212.94 23.88 L 190.98 23.88 L 190.98 41.94 L 196.98 43.26 L 196.98 45.48 L 178.68 45.48 L 178.68 43.26 L 184.68 41.94 L 184.68 4.14 L 178.68 2.7 L 178.68 0.48 L 196.98 0.48 L 196.98 2.7 L 190.98 4.14 L 190.98 21.18 L 212.94 21.18 L 212.94 4.14 L 207.06 2.7 L 207.06 0.48 L 225.3 0.48 L 225.3 2.7 L 219.24 4.08 L 219.24 41.88 L 225.3 43.26 L 225.3 45.48 Z  M 236.1 2.7 L 236.1 0.48 L 254.34 0.48 L 254.34 2.7 L 248.34 4.08 L 248.34 41.94 L 254.34 43.26 L 254.34 45.48 L 236.1 45.48 L 236.1 43.26 L 242.04 41.88 L 242.04 4.14 L 236.1 2.7 Z  M 265.14 2.7 L 265.14 0.48 L 281.1 0.48 L 281.1 0.48 Q 287.22 0.48 291.84 1.59 L 291.84 1.59 L 291.84 1.59 Q 296.46 2.7 300.09 5.25 L 300.09 5.25 L 300.09 5.25 Q 303.72 7.8 305.61 12.3 L 305.61 12.3 L 305.61 12.3 Q 307.5 16.8 307.5 23.22 L 307.5 23.22 L 307.5 23.22 Q 307.5 29.64 305.58 34.08 L 305.58 34.08 L 305.58 34.08 Q 303.66 38.52 299.88 40.95 L 299.88 40.95 L 299.88 40.95 Q 296.1 43.38 291.33 44.43 L 291.33 44.43 L 291.33 44.43 Q 286.56 45.48 280.02 45.48 L 280.02 45.48 L 265.14 45.48 L 265.14 43.26 L 271.08 41.88 L 271.08 4.14 L 265.14 2.7 Z  M 277.38 3 L 277.38 42.96 L 280.32 42.96 L 280.32 42.96 Q 290.7 42.96 295.62 38.52 L 295.62 38.52 L 295.62 38.52 Q 300.54 34.08 300.54 23.25 L 300.54 23.25 L 300.54 23.25 Q 300.54 12.42 295.92 7.71 L 295.92 7.71 L 295.92 7.71 Q 291.3 3 281.34 3 L 281.34 3 L 277.38 3 Z " fill-rule="evenodd" fill="rgb(0,0,0)"/></svg>