<?xml version="1.0" standalone="no"?><!-- Generator: Gravit.io --><svg xmlns="http://www.w3.org/2000/svg" xmlns:xlink="http://www.w3.org/1999/xlink" style="isolation:isolate" viewBox="0 0 141.84 45.66" width="141.84" height="45.66"><path d=" M 141.84 45 L 123.6 45 L 123.6 42.78 L 129.48 41.46 L 129.48 23.4 L 107.52 23.4 L 107.52 41.46 L 113.52 42.78 L 113.52 45 L 95.22 45 L 95.22 42.78 L 101.22 41.46 L 101.22 3.66 L 95.22 2.22 L 95.22 0 L 113.52 0 L 113.52 2.22 L 107.52 3.66 L 107.52 20.7 L 129.48 20.7 L 129.48 3.66 L 123.6 2.22 L 123.6 0 L 141.84 0 L 141.84 2.22 L 135.78 3.6 L 135.78 41.4 L 141.84 42.78 L 141.84 45 Z  M 61.44 41.73 L 61.44 41.73 L 61.44 41.73 Q 61.44 40.08 62.55 38.97 L 62.55 38.97 L 62.55 38.97 Q 63.66 37.86 65.4 37.86 L 65.4 37.86 L 65.4 37.86 Q 67.14 37.86 68.25 38.91 L 68.25 38.91 L 68.25 38.91 Q 69.36 39.96 69.36 41.7 L 69.36 41.7 L 69.36 41.7 Q 69.36 43.44 68.28 44.55 L 68.28 44.55 L 68.28 44.55 Q 67.2 45.66 65.46 45.66 L 65.46 45.66 L 65.46 45.66 Q 63.72 45.66 62.58 44.52 L 62.58 44.52 L 62.58 44.52 Q 61.44 43.38 61.44 41.73 Z  M 28.86 45 L 10.62 45 L 10.62 42.78 L 16.44 41.4 L 16.44 2.58 L 5.46 2.58 L 3.12 11.34 L 0 11.34 L 0 0 L 39.36 0 L 39.36 11.34 L 36.24 11.34 L 33.9 2.58 L 22.74 2.58 L 22.74 41.46 L 28.86 42.78 L 28.86 45 Z " fill-rule="evenodd" fill="rgb(0,0,0)"/></svg>